<svg width="100" height="100" viewBox="0 0 100 100" fill="none" xmlns="http://www.w3.org/2000/svg">
<path d="M50 9.375C41.9651 9.375 34.1107 11.7576 27.43 16.2215C20.7492 20.6855 15.5422 27.0302 12.4674 34.4535C9.39258 41.8767 8.58807 50.0451 10.1556 57.9255C11.7231 65.806 15.5923 73.0447 21.2738 78.7262C26.9553 84.4077 34.194 88.2769 42.0745 89.8444C49.9549 91.4119 58.1233 90.6074 65.5465 87.5326C72.9698 84.4578 79.3145 79.2508 83.7784 72.57C88.2424 65.8893 90.625 58.0349 90.625 50C90.6136 39.2291 86.3298 28.9026 78.7136 21.2863C71.0974 13.6701 60.7709 9.38637 50 9.375ZM79.8906 66.9609H66.7578L63.1406 61.9766L68.0742 47.6094L73.9336 45.6992L84.1836 53.5625C83.6986 58.2783 82.2365 62.8414 79.8906 66.9609ZM15.8281 53.5625L26.0586 45.7031L31.918 47.6133L36.8516 61.9805L33.2422 66.9609H20.1094C17.7607 62.842 16.296 58.2789 15.8086 53.5625H15.8281ZM19.7344 33.7813L21.8867 41.0469L15.9023 45.6133C16.4329 41.4701 17.7199 37.4595 19.6992 33.7813H19.7344ZM42.5781 59.375L38.1016 46.3477L50 38.168L61.8984 46.3477L57.4219 59.375H42.5781ZM78.1523 41.0469L80.3047 33.7813C82.284 37.4595 83.571 41.4701 84.1016 45.6133L78.1523 41.0469ZM75.7305 27.2266L72.0156 39.7578L66.1289 41.668L53.125 32.7305V26.6445L64.4883 18.832C68.7682 20.8336 72.5929 23.6904 75.7266 27.2266H75.7305ZM57.0586 16.3555L50 21.207L42.9414 16.3555C47.5967 15.3815 52.4033 15.3815 57.0586 16.3555ZM35.5117 18.832L46.875 26.6445V32.7305L33.875 41.668L27.9883 39.7578L24.2734 27.2266C27.4071 23.6904 31.2318 20.8336 35.5117 18.832ZM24.668 73.2109H32.625L35.4258 81.1289C31.3587 79.2149 27.7044 76.5253 24.668 73.2109ZM42.9687 83.6445L38.3281 70.5898L41.9336 65.625H58.0664L61.6719 70.5898L57.0508 83.6445C52.4008 84.619 47.5992 84.619 42.9492 83.6445H42.9687ZM64.5937 81.1289L67.3945 73.2109H75.3516C72.3094 76.5273 68.6483 79.2171 64.5742 81.1289H64.5937Z" fill="#818CF8"/>
</svg>
