<svg width="308" height="180" viewBox="0 0 308 180" fill="none" xmlns="http://www.w3.org/2000/svg">
<path d="M3.968 119.2H11.84L26.496 145.824L40.832 119.2H48.704V164H40.064V135.648L30.656 152.672C30.016 153.824 29.3547 154.656 28.672 155.168C28.032 155.637 27.2853 155.872 26.432 155.872H24L12.608 135.648V164H3.968V119.2ZM62.8635 164C61.0288 164 59.5355 163.445 58.3835 162.336C57.2315 161.227 56.6555 159.776 56.6555 157.984V119.2H90.8315V126.88H65.4875V137.248H88.9115V144.928H65.4875V156.32H90.8315V164H62.8635ZM112.459 164.512C109.302 164.512 106.528 163.851 104.139 162.528C101.75 161.163 99.8937 159.264 98.571 156.832C97.2483 154.4 96.587 151.584 96.587 148.384V119.2H105.419V148.128C105.419 150.688 106.059 152.757 107.339 154.336C108.662 155.915 110.368 156.704 112.459 156.704H119.243C121.376 156.704 123.104 155.915 124.427 154.336C125.75 152.757 126.411 150.688 126.411 148.128V119.2H135.243V148.384C135.243 151.584 134.582 154.4 133.259 156.832C131.936 159.264 130.059 161.163 127.627 162.528C125.195 163.851 122.4 164.512 119.243 164.512H112.459ZM172.351 126.88H158.143V119.2H195.391V126.88H181.183V164H172.351V126.88ZM200.796 119.2H209.628V164H200.796V119.2ZM218.218 119.2H226.09L240.746 145.824L255.082 119.2H262.954V164H254.314V135.648L244.906 152.672C244.266 153.824 243.605 154.656 242.922 155.168C242.282 155.637 241.535 155.872 240.682 155.872H238.25L226.858 135.648V164H218.218V119.2ZM277.114 164C275.279 164 273.786 163.445 272.634 162.336C271.482 161.227 270.906 159.776 270.906 157.984V119.2H305.082V126.88H279.738V137.248H303.162V144.928H279.738V156.32H305.082V164H277.114Z" fill="#34D399"/>
<path d="M154 9.375C145.965 9.375 138.111 11.7576 131.43 16.2215C124.749 20.6855 119.542 27.0302 116.467 34.4535C113.393 41.8767 112.588 50.0451 114.156 57.9255C115.723 65.806 119.592 73.0447 125.274 78.7262C130.955 84.4077 138.194 88.2769 146.074 89.8444C153.955 91.4119 162.123 90.6074 169.547 87.5326C176.97 84.4578 183.315 79.2508 187.778 72.57C192.242 65.8893 194.625 58.0349 194.625 50C194.614 39.2291 190.33 28.9026 182.714 21.2863C175.097 13.6701 164.771 9.38637 154 9.375ZM183.891 66.9609H170.758L167.141 61.9766L172.074 47.6094L177.934 45.6992L188.184 53.5625C187.699 58.2783 186.237 62.8414 183.891 66.9609ZM119.828 53.5625L130.059 45.7031L135.918 47.6133L140.852 61.9805L137.242 66.9609H124.109C121.761 62.842 120.296 58.2789 119.809 53.5625H119.828ZM123.734 33.7813L125.887 41.0469L119.902 45.6133C120.433 41.4701 121.72 37.4595 123.699 33.7813H123.734ZM146.578 59.375L142.102 46.3477L154 38.168L165.898 46.3477L161.422 59.375H146.578ZM182.152 41.0469L184.305 33.7813C186.284 37.4595 187.571 41.4701 188.102 45.6133L182.152 41.0469ZM179.73 27.2266L176.016 39.7578L170.129 41.668L157.125 32.7305V26.6445L168.488 18.832C172.768 20.8336 176.593 23.6904 179.727 27.2266H179.73ZM161.059 16.3555L154 21.207L146.941 16.3555C151.597 15.3815 156.403 15.3815 161.059 16.3555ZM139.512 18.832L150.875 26.6445V32.7305L137.875 41.668L131.988 39.7578L128.273 27.2266C131.407 23.6904 135.232 20.8336 139.512 18.832ZM128.668 73.2109H136.625L139.426 81.1289C135.359 79.2149 131.704 76.5253 128.668 73.2109ZM146.969 83.6445L142.328 70.5898L145.934 65.625H162.066L165.672 70.5898L161.051 83.6445C156.401 84.619 151.599 84.619 146.949 83.6445H146.969ZM168.594 81.1289L171.395 73.2109H179.352C176.309 76.5273 172.648 79.2171 168.574 81.1289H168.594Z" fill="#818CF8"/>
</svg>
