<svg width="216" height="50" viewBox="0 0 216 50" fill="none" xmlns="http://www.w3.org/2000/svg">
<path d="M25 4.6875C20.9826 4.6875 17.0554 5.87881 13.715 8.11077C10.3746 10.3427 7.77111 13.5151 6.23371 17.2267C4.6963 20.9384 4.29405 25.0225 5.07781 28.9628C5.86157 32.903 7.79615 36.5224 10.6369 39.3631C13.4777 42.2039 17.097 44.1384 21.0372 44.9222C24.9775 45.706 29.0616 45.3037 32.7733 43.7663C36.4849 42.2289 39.6573 39.6254 41.8892 36.285C44.1212 32.9446 45.3125 29.0174 45.3125 25C45.3068 19.6145 43.1649 14.4513 39.3568 10.6432C35.5487 6.83507 30.3855 4.69319 25 4.6875ZM39.9453 33.4805H33.3789L31.5703 30.9883L34.0371 23.8047L36.9668 22.8496L42.0918 26.7812C41.8493 29.1392 41.1183 31.4207 39.9453 33.4805ZM7.91407 26.7812L13.0293 22.8516L15.959 23.8066L18.4258 30.9902L16.6211 33.4805H10.0547C8.88037 31.421 8.14802 29.1394 7.90431 26.7812H7.91407ZM9.8672 16.8906L10.9434 20.5234L7.95118 22.8066C8.21646 20.735 8.85995 18.7298 9.84962 16.8906H9.8672ZM21.2891 29.6875L19.0508 23.1738L25 19.084L30.9492 23.1738L28.7109 29.6875H21.2891ZM39.0762 20.5234L40.1524 16.8906C41.142 18.7298 41.7855 20.735 42.0508 22.8066L39.0762 20.5234ZM37.8652 13.6133L36.0078 19.8789L33.0645 20.834L26.5625 16.3652V13.3223L32.2441 9.41602C34.3841 10.4168 36.2965 11.8452 37.8633 13.6133H37.8652ZM28.5293 8.17773L25 10.6035L21.4707 8.17773C23.7984 7.69075 26.2016 7.69075 28.5293 8.17773ZM17.7559 9.41602L23.4375 13.3223V16.3652L16.9375 20.834L13.9941 19.8789L12.1367 13.6133C13.7036 11.8452 15.6159 10.4168 17.7559 9.41602ZM12.334 36.6055H16.3125L17.7129 40.5645C15.6793 39.6075 13.8522 38.2626 12.334 36.6055ZM21.4844 41.8223L19.1641 35.2949L20.9668 32.8125H29.0332L30.8359 35.2949L28.5254 41.8223C26.2004 42.3095 23.7996 42.3095 21.4746 41.8223H21.4844ZM32.2969 40.5645L33.6973 36.6055H37.6758C36.1547 38.2637 34.3242 39.6085 32.2871 40.5645H32.2969Z" fill="#818CF8"/>
<path d="M63.984 14.6H67.92L75.248 27.912L82.416 14.6H86.352V37H82.032V22.824L77.328 31.336C77.008 31.912 76.6773 32.328 76.336 32.584C76.016 32.8187 75.6427 32.936 75.216 32.936H74L68.304 22.824V37H63.984V14.6ZM93.4318 37C92.5144 37 91.7678 36.7227 91.1918 36.168C90.6158 35.6133 90.3278 34.888 90.3278 33.992V14.6H107.416V18.44H94.7438V23.624H106.456V27.464H94.7438V33.16H107.416V37H93.4318ZM118.23 37.256C116.651 37.256 115.264 36.9253 114.07 36.264C112.875 35.5813 111.947 34.632 111.286 33.416C110.624 32.2 110.294 30.792 110.294 29.192V14.6H114.71V29.064C114.71 30.344 115.03 31.3787 115.67 32.168C116.331 32.9573 117.184 33.352 118.23 33.352H121.622C122.688 33.352 123.552 32.9573 124.214 32.168C124.875 31.3787 125.206 30.344 125.206 29.064V14.6H129.622V29.192C129.622 30.792 129.291 32.2 128.63 33.416C127.968 34.632 127.03 35.5813 125.814 36.264C124.598 36.9253 123.2 37.256 121.622 37.256H118.23ZM148.176 18.44H141.072V14.6H159.696V18.44H152.592V37H148.176V18.44ZM162.398 14.6H166.814V37H162.398V14.6ZM171.109 14.6H175.045L182.373 27.912L189.541 14.6H193.477V37H189.157V22.824L184.453 31.336C184.133 31.912 183.802 32.328 183.461 32.584C183.141 32.8187 182.768 32.936 182.341 32.936H181.125L175.429 22.824V37H171.109V14.6ZM200.557 37C199.639 37 198.893 36.7227 198.317 36.168C197.741 35.6133 197.453 34.888 197.453 33.992V14.6H214.541V18.44H201.869V23.624H213.581V27.464H201.869V33.16H214.541V37H200.557Z" fill="#34D399"/>
</svg>
